<?xml version="1.0" encoding="UTF-8" standalone="no"?>
<!DOCTYPE svg  PUBLIC '-//W3C//DTD SVG 1.1//EN'  'http://www.w3.org/Graphics/SVG/1.1/DTD/svg11.dtd'>
<svg xmlns="http://www.w3.org/2000/svg">
<defs>
<font id="Pragmatica-Bold" horiz-adv-x="500">
<font-face underline-position="-55" font-weight="700" descent="-200" panose-1="0 0 0 0 0 0 0 0 0 0" units-per-em="1000" unicode-range="U+0020-2666" bbox="-224 -207 1203 924" x-height="539" underline-thickness="50" font-family="Pragmatica" ascent="800" cap-height="742"/>
<missing-glyph horiz-adv-x="1000"/>
<glyph glyph-name=".notdef" horiz-adv-x="1000"/>
<glyph glyph-name="glyph1" horiz-adv-x="0"/>
<glyph glyph-name="glyph2" horiz-adv-x="1000"/>
<glyph glyph-name="space" horiz-adv-x="351" unicode=" "/>
<glyph glyph-name="space" horiz-adv-x="351" unicode=" "/>
<glyph glyph-name="exclam" horiz-adv-x="407" unicode="!" d="M112 742h183v-194l-46 -310h-91l-46 310v194zM116 0v168h175v-168h-175z"/>
<glyph glyph-name="quotedbl" horiz-adv-x="526" unicode='&quot;' d="M466 742l-56 -203h-70l-56 203h182zM242 742l-56 -203h-70l-56 203h182z"/>
<glyph glyph-name="numbersign" horiz-adv-x="1054" unicode="#" d="M593 223l32 162h-164l-31 -162h163zM656 -59h-119l32 164h-161l-32 -164h-119l32 164h-164l23 118h164l32 162h-164l23 118h164l31 163h119l-32 -163h162l31 163h119l-32 -163h164l-23 -118h-164l-31 -162h164l-23 -118h-164z"/>
<glyph glyph-name="dollar" horiz-adv-x="683" unicode="$" d="M308 468v168q-37 -2 -55.5 -17.5t-25.5 -34.5q-3 -9 -4.5 -17.5t-1.5 -15.5q0 -40 26 -59t61 -24zM387 302v-193q41 0 65 30.5t27 66.5v4v4q0 34 -18 52.5t-39 26.5q-9 4 -18 6t-17 3zM35 239l158 1q7 -63 32 -91t54 -36q7 -2 14.5 -3t14.5 -1v206q-117 27 -183 76.5 t-66 154.5q0 93 44.5 137.5t97.5 61.5q27 8 53 11t46 3h2h2h2h2v66h81v-66q102 0 151.5 -39.5t68.5 -86.5q10 -27 13.5 -52.5t3.5 -43.5h-157q0 41 -15 61.5t-33 28.5q-10 5 -18.5 6.5t-15.5 2.5v-183q156 -37 205 -98t49 -144q0 -92 -43.5 -139.5t-94.5 -67.5 q-33 -11 -63.5 -15t-50.5 -5v-85h-81v84q-141 3 -203 69t-70 187z"/>
<glyph glyph-name="percent" horiz-adv-x="1011" unicode="%" d="M168 544q0 -53 15 -80t32 -38q10 -6 19 -8t16 -2t15.5 2t17.5 7q18 11 34 38.5t16 80.5q0 59 -19.5 88t-42.5 36q-5 2 -10.5 3t-10.5 1q-7 0 -16 -2t-19 -8q-17 -10 -32 -37t-15 -81zM56 544q0 99 46 146.5t100 60.5q13 2 24.5 3.5t23.5 1.5q11 0 22 -1t22 -3 q56 -12 103.5 -59.5t47.5 -148.5q0 -15 -1.5 -31t-5.5 -32q-13 -56 -56 -102.5t-132 -46.5q-82 0 -138 53.5t-56 158.5zM214 0l473 742h109l-473 -742h-109zM677 198q0 -58 19.5 -87t42.5 -37q5 -2 10.5 -3t10.5 -1t10.5 1t10.5 3q23 7 42.5 36t19.5 88q0 64 -23.5 94 t-51.5 34h-4h-4h-4h-4q-28 -4 -51.5 -34.5t-23.5 -93.5zM565 198q0 14 1.5 29.5t5.5 31.5q13 57 56.5 104t131.5 47t131.5 -47t56.5 -104q4 -16 5.5 -31.5t1.5 -29.5q0 -104 -57 -157.5t-138 -53.5t-138 53.5t-57 157.5z"/>
<glyph glyph-name="ampersand" horiz-adv-x="743" unicode="&amp;" d="M341 484q41 18 62 40.5t21 58.5q0 30 -15 44.5t-32 19.5q-6 2 -11.5 2.5t-10.5 0.5h-2.5h-2.5q-24 -2 -43.5 -18.5t-19.5 -49.5q0 -24 14 -45.5t31 -41.5q2 -3 4.5 -5.5t4.5 -5.5zM427 161l-134 168q-42 -19 -64 -46t-22 -68q0 -5 0.5 -10.5t1.5 -10.5q6 -31 31 -56 t75 -25q4 0 8.5 0.5t9.5 0.5q28 4 54 16.5t40 30.5zM546 342h141q-5 -29 -22 -75t-59 -102l137 -165h-187l-54 67q-18 -20 -39.5 -34.5t-42.5 -23.5q-45 -19 -84.5 -22.5t-56.5 -3.5q-112 0 -168.5 59.5t-66.5 130.5q-1 8 -1.5 16t-0.5 16q0 99 43.5 141t102.5 73l12 6l12 6 q-10 11 -18 21.5t-14 21.5q-15 23 -22.5 48t-7.5 55q0 83 60 127.5t145 44.5q73 0 112 -27t56 -60q15 -30 18 -55.5t3 -30.5q0 -16 -6 -47t-32 -65q-14 -18 -35.5 -36t-53.5 -34l103 -123q14 24 19.5 42.5t6.5 28.5z"/>
<glyph glyph-name="quotesingle" horiz-adv-x="302" unicode="&apos;" d="M242 742l-56 -203h-70l-56 203h182z"/>
<glyph glyph-name="parenleft" horiz-adv-x="419" unicode="(" d="M241 742h122q-24 -53 -44.5 -108.5t-36.5 -111.5q-17 -64 -27.5 -126.5t-10.5 -122.5t10.5 -122.5t27.5 -126.5q16 -55 36.5 -110.5t44.5 -108.5l-122 -1q-49 84 -81.5 151.5t-51.5 132.5q-12 44 -18 89.5t-6 95.5t6 95.5t18 89.5q19 65 51.5 133t81.5 151z"/>
<glyph glyph-name="parenright" horiz-adv-x="419" unicode=")" d="M177 -196h-121q45 109 81.5 225.5t36.5 243.5q0 33 -3 66.5t-9 66.5q-14 84 -42.5 167.5t-63.5 168.5h121q110 -176 134 -290t24 -179q0 -64 -24 -178t-134 -290v-1z"/>
<glyph glyph-name="asterisk" horiz-adv-x="510" unicode="*" d="M255 520l-75 -101l-63 49l72 98l-115 39l26 75l116 -39v122h79v-122l115 39l26 -75l-115 -39l73 -98l-64 -49z"/>
<glyph glyph-name="plus" horiz-adv-x="742" unicode="+" d="M56 413h273v273h84v-273h273v-84h-273v-273h-84v273h-273v84z"/>
<glyph glyph-name="comma" horiz-adv-x="399" unicode="," d="M112 0v168h175v-168q0 -85 -34 -124.5t-76 -52.5q-17 -6 -34 -8t-31 -2v83q1 1 1.5 1h1.5q33 2 60.5 24.5t27.5 73.5v5h-91z"/>
<glyph glyph-name="hyphen" horiz-adv-x="474" unicode="-" d="M84 217v133h306v-133h-306z"/>
<glyph glyph-name="period" horiz-adv-x="399" unicode="." d="M112 0v168h175v-168h-175z"/>
<glyph glyph-name="slash" horiz-adv-x="501" unicode="/" d="M0 -196l389 938h112l-389 -938h-112z"/>
<glyph glyph-name="zero" horiz-adv-x="685" unicode="0" d="M342 108q63 0 90.5 45.5t35.5 99.5q5 32 6 62t1 51v2.5v2.5v2.5v2.5q0 21 -1 51t-6 62q-8 54 -35.5 99.5t-90.5 45.5q-64 0 -91.5 -47.5t-35.5 -104.5q-4 -31 -5 -60t-1 -51t1 -51t5 -60q8 -57 35.5 -104.5t91.5 -47.5zM342 -14q-156 1 -227.5 110.5t-71.5 274.5 t71.5 275t227.5 110q130 0 192.5 -68.5t85.5 -150.5q14 -46 18 -90t4 -76t-4 -76t-18 -90q-23 -82 -85.5 -150t-192.5 -68v-1z"/>
<glyph glyph-name="one" horiz-adv-x="686" unicode="1" d="M129 521v89h23q14 0 29.5 2t30.5 6q45 12 85 42.5t51 81.5h131v-742h-175v521h-175z"/>
<glyph glyph-name="two" horiz-adv-x="685" unicode="2" d="M628 133v-133h-569v30q0 45 12 82t41 73q28 35 75.5 72t117.5 82q33 21 59 39t45 35q27 23 40 49t13 61q0 59 -35 84.5t-77 27.5h-3.5h-2.5q-55 0 -90.5 -32t-35.5 -91v-27h-162v23q0 21 4.5 48t16.5 56q23 54 85.5 99.5t188.5 45.5q116 0 197 -54.5t81 -172.5 q0 -96 -54 -152.5t-118 -95.5q-8 -5 -15.5 -9.5t-15.5 -9.5q-55 -33 -86.5 -54t-49.5 -40q-8 -9 -14 -17.5t-11 -18.5h363z"/>
<glyph glyph-name="three" horiz-adv-x="686" unicode="3" d="M40 255h165v-1v-1v-1v-1q0 -12 2 -26t6 -29q11 -33 40 -60t88 -27t93 31t34 82q0 45 -20 66t-45 29q-14 4 -28 5t-23 1h-74v122h56q10 0 24 1t29 5q25 6 46 25.5t21 62.5q0 7 -1 15t-4 17q-9 23 -34.5 42.5t-79.5 19.5q-10 0 -23.5 -1t-27.5 -6q-26 -10 -47.5 -38 t-21.5 -91h-156v2v2v1v2q0 19 2.5 40t8.5 42q18 64 79 116.5t194 52.5q140 0 203 -59t63 -143q0 -76 -41 -115t-91 -49v-3q7 -1 14.5 -2t14.5 -3q48 -12 88 -53.5t40 -121.5q0 -13 -4.5 -43t-23.5 -62q-24 -43 -83 -78t-175 -35q-150 0 -215 57.5t-83 127.5q-6 21 -8 42 t-2 40z"/>
<glyph glyph-name="four" horiz-adv-x="686" unicode="4" d="M167 296h219v280zM379 167h-344v133l350 442h162v-446h104v-129h-104v-167h-168v167z"/>
<glyph glyph-name="five" horiz-adv-x="686" unicode="5" d="M52 215h165q4 -45 36.5 -77t87.5 -32t81 26.5t36 58.5q6 19 7.5 37.5t1.5 30.5q0 72 -37.5 104.5t-82.5 33.5h-1.5h-1.5q-8 0 -17 -1t-18 -3q-24 -5 -46 -17t-33 -32h-164l47 398h474v-129h-360l-21 -161q41 30 85 41.5t93 11.5q97 0 173.5 -61t76.5 -188v-5.5v-5.5 q-4 -97 -72 -177.5t-225 -80.5q-146 0 -211 67t-73 147q0 4 -0.5 7.5t-0.5 6.5z"/>
<glyph glyph-name="six" horiz-adv-x="687" unicode="6" d="M210 255q0 -59 36.5 -103t102.5 -44q65 0 99.5 42t34.5 102q0 70 -39 106.5t-97 36.5h-6.5h-6.5q-47 -4 -85.5 -36t-38.5 -104zM629 567h-151q-10 34 -45 50t-79 16q-80 0 -110 -57.5t-34 -131.5q13 13 27 23t28 18q33 16 63 20.5t46 4.5q119 0 191 -69.5t72 -183.5 q0 -16 -1.5 -32.5t-4.5 -33.5q-16 -77 -77.5 -140.5t-195.5 -63.5q-139 0 -203 66.5t-86 147.5q-13 46 -16 90.5t-3 75.5q0 30 4 78t21 99q25 79 90 145t198 66q96 0 150 -32.5t80 -71.5q16 -24 24.5 -46.5t11.5 -37.5z"/>
<glyph glyph-name="seven" horiz-adv-x="686" unicode="7" d="M36 606v136h614v-123q-49 -44 -93 -99t-78 -112q-12 -21 -23 -42t-20 -41q-8 -19 -15.5 -37t-13.5 -37q-22 -61 -33 -123t-12 -128h-182q3 60 16 115t28 98q9 28 18 49.5t15 35.5q32 70 76.5 134.5t91.5 116.5q13 15 26 28.5t26 25.5v3h-441z"/>
<glyph glyph-name="eight" horiz-adv-x="686" unicode="8" d="M343 443q8 0 16.5 0.5t17.5 1.5q34 6 62 28.5t28 70.5q0 45 -35 69.5t-89 24.5q-55 0 -89 -24.5t-34 -69.5q0 -44 22 -65t48 -29q13 -4 26 -5.5t23 -1.5h1h1h1h1zM343 109h3.5h2.5q7 0 14 0.5t14 1.5q39 6 72 32.5t33 82.5q0 7 -2 23t-11 35q-12 23 -41 42t-85 19 t-85 -19t-41 -42q-9 -19 -11 -35t-2 -23q0 -56 33 -82.5t72 -32.5q7 -1 14 -1.5t14 -0.5h3.5h2.5zM343 -13q-4 1 -8 1h-9q-23 0 -51 3t-57 9q-66 18 -121 66t-55 146q0 15 2 30.5t6 31.5q11 35 39.5 67.5t85.5 53.5q-49 17 -79 59t-30 100q0 9 1 18.5t3 19.5q12 61 73.5 112 t199.5 51q18 0 37.5 -1.5t38.5 -4.5q75 -12 138 -56t63 -139q0 -58 -29.5 -100t-79.5 -59q57 -21 85.5 -53.5t39.5 -67.5q4 -16 6 -31.5t2 -30.5q0 -99 -55.5 -147t-121.5 -65q-29 -6 -57 -9t-51 -3h-4h-4h-4h-4v-1z"/>
<glyph glyph-name="nine" horiz-adv-x="687" unicode="9" d="M477 486q0 11 -1.5 22.5t-4.5 23.5q-11 38 -42 69.5t-91 31.5q-65 0 -99.5 -42t-34.5 -103q0 -58 33.5 -100.5t101.5 -42.5q74 0 106 44t32 97zM65 174h151q11 -35 43 -50.5t75 -15.5q12 0 28.5 2.5t33.5 12.5q29 15 53 54t28 120q-15 -15 -30.5 -26t-30.5 -18 q-27 -14 -53.5 -18.5t-49.5 -4.5h-9.5t-9.5 1q-91 5 -167.5 65.5t-76.5 186.5q0 16 1.5 33t5.5 34q16 77 79.5 141t199.5 64q134 0 196.5 -64t84.5 -141q13 -46 16.5 -89t3.5 -73q0 -166 -51 -249.5t-112 -116.5q-45 -24 -86.5 -29.5t-61.5 -5.5q-94 0 -147 32t-79 71 q-16 24 -24 46.5t-11 37.5z"/>
<glyph glyph-name="colon" horiz-adv-x="399" unicode=":" d="M112 371v168h175v-168h-175zM112 0v168h175v-168h-175z"/>
<glyph glyph-name="semicolon" horiz-adv-x="399" unicode=";" d="M112 371v168h175v-168h-175zM112 0v168h175v-168q0 -85 -34 -124.5t-76 -52.5q-17 -6 -34 -8t-31 -2v83q1 1 1.5 1h1.5q33 2 60.5 24.5t27.5 73.5v5h-91z"/>
<glyph glyph-name="less" horiz-adv-x="700" unicode="&lt;" d="M43 408l538 311l59 -102l-439 -254l439 -253l-59 -102l-538 310v90z"/>
<glyph glyph-name="equal" horiz-adv-x="742" unicode="=" d="M56 519h630v-84h-630v84zM56 307h630v-84h-630v84z"/>
<glyph glyph-name="greater" horiz-adv-x="700" unicode="&gt;" d="M657 408v-90l-538 -310l-59 102l439 253l-439 254l59 102z"/>
<glyph glyph-name="question" horiz-adv-x="617" unicode="?" d="M206 506h-164v6v7q0 97 58 166.5t212 69.5q136 0 199.5 -55t63.5 -140q0 -61 -27 -100t-59 -64q-10 -8 -20 -14.5t-19 -12.5q-3 -2 -5.5 -3.5t-4.5 -2.5q-32 -20 -53.5 -44t-21.5 -68v-3t1 -3v-3.5v-3.5h-133q-1 8 -1 15.5v14.5q0 66 25.5 101.5t56.5 58.5q3 2 6.5 5 t7.5 5q11 8 20.5 15t17.5 14q20 18 31 37.5t11 46.5q0 44 -29 63t-69 19q-8 0 -20.5 -1.5t-25.5 -6.5q-22 -9 -40 -33t-18 -74v-6v-6zM212 0v168h175v-168h-175z"/>
<glyph glyph-name="at" horiz-adv-x="1052" unicode="@" d="M619 291q0 91 -33 121t-73 30q-55 0 -79 -36.5t-30 -79.5q-1 -9 -1.5 -18t-0.5 -17q0 -79 31.5 -114t78.5 -35q43 0 65 23.5t32 52.5q7 24 8.5 45t1.5 28zM726 -7l50 -90q-34 -21 -66 -35t-63 -22q-30 -8 -59.5 -10.5t-61.5 -2.5q-231 0 -353.5 141t-122.5 334 q0 218 142 347t334 129q214 0 321 -107.5t139 -236.5q8 -34 12 -67t4 -65v-6.5v-7.5q-5 -95 -66.5 -174t-173.5 -79q-11 0 -25 1t-29 5q-15 5 -29.5 15.5t-25.5 29.5q-12 -19 -31 -30.5t-40 -17.5q-26 -8 -49.5 -9t-31.5 -1h-1h-1q-112 0 -170.5 71t-58.5 188 q0 103 57.5 180.5t163.5 77.5q44 0 71.5 -9.5t44.5 -21.5l8 -6t7 -6l1 26h127v-327q0 -40 9.5 -49t23.5 -9q55 0 82 45.5t30 100.5v6.5v6.5q0 192 -112.5 285t-256.5 93q-146 0 -258 -102.5t-112 -275.5q0 -192 115.5 -284.5t254.5 -92.5q68 0 116 18.5t84 44.5v-1z"/>
<glyph glyph-name="A" horiz-adv-x="714" unicode="A" d="M260 265h193l-96 283zM268 742h177l279 -742h-185l-48 139h-269l-47 -139h-185z"/>
<glyph glyph-name="B" horiz-adv-x="768" unicode="B" d="M254 606v-157h162q5 0 10 0.5t10 1.5q25 4 45.5 22t20.5 53q0 42 -25 59.5t-55 19.5q-3 1 -6.5 1h-7.5h-154zM254 313v-177h182q8 0 18.5 1.5t22.5 6.5q20 8 37.5 27.5t17.5 56.5q0 55 -36.5 70t-79.5 15h-1.5h-1.5h-159zM79 742h373q99 0 146.5 -32t65.5 -70 q12 -26 14.5 -49.5t2.5 -37.5q0 -51 -21.5 -82t-47.5 -48q-15 -10 -29 -15.5t-24 -8.5v-2q4 -1 8 -1.5t8 -1.5q53 -14 97.5 -58t44.5 -128q0 -97 -50.5 -140t-111.5 -57q-34 -8 -66.5 -9.5t-55.5 -1.5h-354v742z"/>
<glyph glyph-name="C" horiz-adv-x="773" unicode="C" d="M571 262h174q-2 -23 -8 -49.5t-17 -53.5q-27 -68 -98 -125t-214 -57q-160 0 -235.5 67t-102.5 148q-16 46 -20.5 90t-4.5 75q0 166 57.5 249.5t126.5 117.5q55 27 104 32.5t69 5.5q145 0 216 -54.5t98 -120.5q10 -25 15 -50t6 -47h-172q-1 11 -4.5 24.5t-10.5 27.5 q-13 28 -45.5 52t-94.5 24q-75 0 -111 -42t-51 -92q-10 -36 -12 -69.5t-2 -50.5q0 -98 29 -148t64 -71q29 -17 54.5 -20.5t34.5 -3.5q58 0 89 23.5t46 52.5q10 19 14.5 37t5.5 28z"/>
<glyph glyph-name="D" horiz-adv-x="804" unicode="D" d="M254 598v-454h112q89 0 146.5 48.5t57.5 176.5q0 110 -38 157.5t-84 61.5q-19 6 -37.5 8t-34.5 2h-122zM79 742h320q166 0 242.5 -74t100.5 -162q10 -36 13.5 -70t3.5 -64q0 -163 -62 -240t-136 -105q-53 -20 -101 -23.5t-74 -3.5h-1.5h-1.5h-304v742z"/>
<glyph glyph-name="E" horiz-adv-x="700" unicode="E" d="M254 447h363v-136h-363v-167h422v-144h-597v742h587v-144h-412v-151z"/>
<glyph glyph-name="F" horiz-adv-x="632" unicode="F" d="M254 428h308v-144h-308v-284h-175v742h539v-144h-364v-170z"/>
<glyph glyph-name="G" horiz-adv-x="832" unicode="G" d="M452 403h315v-403h-130v80h-2q-23 -36 -53.5 -57t-62.5 -30q-29 -10 -58 -12.5t-51 -2.5q-187 0 -276 106t-89 289q0 170 67.5 251t149.5 111q49 18 96 23t78 5q148 0 223 -71t96 -156q2 -9 3.5 -17.5t2.5 -17.5h-183q0 7 -1.5 13.5t-2.5 13.5q-10 34 -42 62t-97 28 q-91 0 -133 -45.5t-56 -100.5q-8 -29 -10 -56t-2 -48q0 -130 57.5 -188t137.5 -58q74 0 120.5 41t50.5 105h-148v135z"/>
<glyph glyph-name="H" horiz-adv-x="778" unicode="H" d="M254 319v-319h-175v742h175v-279h270v279h175v-742h-175v319h-270z"/>
<glyph glyph-name="I" horiz-adv-x="333" unicode="I" d="M79 742h175v-742h-175v742z"/>
<glyph glyph-name="J" horiz-adv-x="620" unicode="J" d="M28 273h175v-29q0 -46 16.5 -83t74.5 -37q50 0 65.5 31t15.5 89v498h175v-474q0 -145 -50.5 -204t-111.5 -73q-24 -7 -48 -8.5t-45 -1.5q-136 0 -195 64t-69 142q-2 10 -2.5 20t-0.5 20v46z"/>
<glyph glyph-name="K" horiz-adv-x="769" unicode="K" d="M254 440l285 302h218l-298 -307l320 -435h-218l-223 320l-84 -85v-235h-175v742h175v-302z"/>
<glyph glyph-name="L" horiz-adv-x="614" unicode="L" d="M600 144v-144h-521v742h175v-598h346z"/>
<glyph glyph-name="M" horiz-adv-x="1004" unicode="M" d="M443 0l-186 530h-3v-530h-175v742h246l177 -510l177 510h246v-742h-175v530h-3l-186 -530h-118z"/>
<glyph glyph-name="N" horiz-adv-x="806" unicode="N" d="M257 464h-3v-464h-175v742h178l292 -461h3v461h175v-742h-178z"/>
<glyph glyph-name="O" horiz-adv-x="840" unicode="O" d="M420 123q83 0 121.5 44.5t52.5 97.5q8 29 10 57.5t2 48.5q0 21 -2 48t-9 56q-13 54 -52 99t-123 45q-101 0 -139.5 -64.5t-44.5 -141.5q-1 -11 -1.5 -21.5t-0.5 -20.5q0 -13 0.5 -25.5t2.5 -25.5q7 -74 46 -135.5t137 -61.5zM420 -21q-204 1 -289.5 121t-85.5 271 q0 10 0.5 20.5t1.5 20.5q9 132 93 241.5t280 109.5q199 0 282 -111t92 -244q0 -9 0.5 -18.5t0.5 -18.5t-0.5 -18.5t-0.5 -18.5q-9 -133 -92 -243.5t-282 -110.5v-1z"/>
<glyph glyph-name="P" horiz-adv-x="726" unicode="P" d="M254 597v-198h137q55 0 90 20.5t35 81.5q0 57 -33 76.5t-92 19.5h-137zM79 742h346q158 0 215.5 -72.5t57.5 -167.5q0 -112 -49.5 -163.5t-108.5 -68.5q-33 -10 -64.5 -12.5t-54.5 -2.5h-167v-255h-175v742z"/>
<glyph glyph-name="Q" horiz-adv-x="840" unicode="Q" d="M484 300l89 -92q3 4 5.5 9.5t5.5 12.5q8 20 15 53.5t7 87.5q0 10 -0.5 20.5t-1.5 21.5q-6 77 -44.5 141.5t-139.5 64.5q-84 0 -123 -45t-52 -99q-7 -29 -9 -56t-2 -48t2 -48t9 -55q13 -55 51.5 -100t123.5 -45q26 0 44.5 3.5t35.5 11.5q2 1 4.5 2.5t4.5 2.5l-94 90z M696 84l85 -84l-79 -79l-95 96q-31 -17 -74 -27t-113 -10q-152 0 -229.5 63t-109.5 138q-25 60 -30.5 113.5t-5.5 76.5q0 9 0.5 18.5t0.5 18.5q9 133 92 244t282 111q196 0 280 -109.5t93 -241.5q1 -10 1.5 -20.5t0.5 -20.5q0 -74 -16 -128.5t-35 -89.5q-15 -30 -29 -47 t-19 -22z"/>
<glyph glyph-name="R" horiz-adv-x="759" unicode="R" d="M254 598v-189h160q6 0 12 0.5t12 0.5q33 4 61 23.5t28 68.5q0 62 -35.5 79t-83.5 17h-154zM79 0v742h380q123 0 184 -57.5t61 -153.5q0 -81 -37.5 -125.5t-84.5 -59.5v-3q58 -16 79 -54.5t25 -81.5q1 -11 1.5 -22t0.5 -22v-5.5v-5.5q1 -59 4.5 -88t17.5 -52q1 -3 3 -6 l4 -6h-178q-16 23 -21.5 54t-7.5 104q-1 44 -18.5 80t-102.5 36h-135v-274h-175z"/>
<glyph glyph-name="S" horiz-adv-x="711" unicode="S" d="M37 241h177v-2v-3q0 -10 2 -23.5t8 -26.5q11 -27 42 -49t96 -22q10 0 21 0.5t23 2.5q33 4 61 21.5t28 59.5q0 57 -52 77.5t-115 33.5q-1 0 -2 0.5t-2 0.5q-4 1 -8.5 2t-9.5 2q-6 1 -12 2.5t-11 2.5q-83 19 -151.5 61.5t-68.5 162.5q0 105 78.5 162t224.5 57 q111 0 169 -36t83 -80q20 -34 25 -65t5 -44h-166q-3 38 -24.5 56.5t-46.5 25.5q-16 5 -31 6t-25 1q-55 0 -86.5 -21t-31.5 -58q0 -38 30 -55.5t66 -25.5q14 -3 27 -5.5t24 -4.5q128 -25 209 -68.5t81 -162.5q0 -17 -2 -36t-8 -38q-18 -65 -84.5 -118.5t-219.5 -53.5 q-145 0 -213.5 50.5t-91.5 111.5q-10 26 -14 52t-4 47z"/>
<glyph glyph-name="T" horiz-adv-x="651" unicode="T" d="M238 598h-224v144h623v-144h-224v-598h-175v598z"/>
<glyph glyph-name="U" horiz-adv-x="782" unicode="U" d="M70 742h175v-433q0 -80 27.5 -131.5t118.5 -51.5q89 0 117.5 50.5t28.5 132.5v433h175v-461q0 -25 -3.5 -58.5t-15.5 -68.5q-23 -65 -90 -118.5t-212 -53.5q-149 0 -215.5 55t-88.5 121q-11 34 -14 66t-3 57v461z"/>
<glyph glyph-name="V" horiz-adv-x="669" unicode="V" d="M341 212l144 530h194l-252 -742h-185l-252 742h201z"/>
<glyph glyph-name="W" horiz-adv-x="1008" unicode="W" d="M504 548l-128 -548h-189l-197 742h185l120 -542l129 542h160l128 -542l121 542h185l-198 -742h-189z"/>
<glyph glyph-name="X" horiz-adv-x="747" unicode="X" d="M373 255l-153 -255h-220l261 386l-238 356h208l142 -244l143 244h208l-239 -356l262 -386h-220z"/>
<glyph glyph-name="Y" horiz-adv-x="688" unicode="Y" d="M348 421l157 321h193l-266 -462v-280h-175v280l-267 462h200z"/>
<glyph glyph-name="Z" horiz-adv-x="676" unicode="Z" d="M403 594h-356v148h576v-135l-382 -459h407v-148h-620v155z"/>
<glyph glyph-name="bracketleft" horiz-adv-x="448" unicode="[" d="M112 742h280v-98h-140v-742h140v-98h-280v938z"/>
<glyph glyph-name="backslash" horiz-adv-x="699" unicode="\" d="M70 770l100 51l459 -858l-99 -52z"/>
<glyph glyph-name="bracketright" horiz-adv-x="448" unicode="]" d="M336 -196h-280v98h140v742h-140v98h280v-938z"/>
<glyph glyph-name="asciicircum" horiz-adv-x="527" unicode="^" d="M137 742h252l107 -151h-106l-127 100l-126 -100h-106z"/>
<glyph glyph-name="underscore" horiz-adv-x="527" unicode="_" d="M0 -196v126h527v-126h-527z"/>
<glyph glyph-name="grave" horiz-adv-x="302" unicode="`" d="M158 742l73 -140h-130l-113 140h170z"/>
<glyph glyph-name="a" horiz-adv-x="641" unicode="a" d="M415 223l1 34q-11 -6 -20 -9.5t-18 -6.5q-8 -2 -16 -3.5t-18 -3.5q-4 -1 -8.5 -1.5t-9.5 -1.5q-8 -1 -17 -2.5t-18 -3.5q-29 -7 -52.5 -22.5t-23.5 -52.5q0 -3 0.5 -6.5t0.5 -6.5q5 -21 24 -38t58 -17q10 0 21.5 2t23.5 7q26 11 48 41t24 91zM229 365h-154q0 15 3 32.5 t10 34.5q17 46 70.5 83.5t170.5 37.5q118 0 168.5 -37t66.5 -81q7 -21 8.5 -41.5t1.5 -36.5l-2 -246v-13q0 -40 6 -62t26 -32v-4h-169l-14 53h-3q-16 -19 -36 -31.5t-40 -20.5q-34 -11 -63.5 -14t-41.5 -3q-83 0 -122.5 28t-53.5 63q-6 16 -8.5 32t-2.5 29q0 94 64 126 t140 42q8 1 15.5 2t14.5 2q17 2 30.5 4t25.5 3q44 7 58.5 16.5t15.5 33.5v3.5v3.5v3.5v3.5q0 6 -1 13.5t-4 15.5q-7 16 -24.5 29.5t-56.5 13.5q-44 0 -64.5 -16t-28.5 -35q-3 -10 -4.5 -19t-1.5 -16z"/>
<glyph glyph-name="b" horiz-adv-x="675" unicode="b" d="M217 269q0 -83 34 -128t92 -45q61 0 94 48t33 125v4v4q-2 62 -30.5 113.5t-96.5 51.5q-8 0 -25 -2.5t-36 -13.5q-24 -15 -44.5 -50.5t-20.5 -106.5zM214 65l2 -65h-151v742h161v-258q25 31 59 48t70 22q9 1 17 1.5t16 0.5q119 0 183.5 -80.5t64.5 -204.5 q0 -154 -75 -220.5t-165 -68.5h-3.5h-2.5q-58 0 -101 23t-72 60h-3z"/>
<glyph glyph-name="c" horiz-adv-x="628" unicode="c" d="M433 203h159q-2 -18 -7.5 -40t-15.5 -44q-23 -52 -78.5 -94.5t-165.5 -42.5q-157 0 -221.5 87t-64.5 199q0 24 4 55.5t15 64.5q23 64 85 117.5t192 53.5q102 0 154.5 -39.5t74.5 -87.5q10 -23 15 -45t7 -40h-155q-7 62 -37 83t-65 21q-10 0 -22.5 -1.5t-24.5 -6.5 q-29 -11 -52.5 -46.5t-23.5 -116.5q0 -106 34 -146t74 -44q3 -1 6.5 -1h6.5q42 0 64 21.5t31 46.5q5 13 7.5 25t3.5 21z"/>
<glyph glyph-name="d" horiz-adv-x="676" unicode="d" d="M458 269q0 71 -29 122t-97 51q-67 0 -96.5 -51t-29.5 -122q0 -94 37.5 -132.5t82.5 -40.5h3.5h2.5h2.5h3.5q45 2 82.5 40.5t37.5 132.5zM611 0h-151l1 65h-3q-14 -17 -29 -29.5t-30 -21.5q-30 -18 -59 -24.5t-56 -6.5q-116 0 -180.5 80.5t-64.5 207.5q0 111 39 169t85 84 q44 24 81 28t43 4q11 0 22.5 -1t22.5 -3q33 -7 64.5 -23.5t53.5 -44.5v258h161v-742z"/>
<glyph glyph-name="e" horiz-adv-x="656" unicode="e" d="M205 320h246q-1 58 -21.5 86.5t-44.5 38.5q-13 5 -26 7t-22 2q-51 0 -78 -24t-40 -53q-7 -16 -10 -31t-4 -26zM443 156h163q-4 -14 -10.5 -31t-17.5 -35q-26 -40 -84 -73.5t-167 -33.5q-145 0 -216.5 78.5t-71.5 208.5q0 143 86.5 214.5t213.5 71.5q153 0 215.5 -90 t62.5 -206v-24h-412v-8t1 -8q3 -51 33 -93.5t95 -42.5h3.5h3.5q34 2 64 19.5t38 52.5z"/>
<glyph glyph-name="f" horiz-adv-x="409" unicode="f" d="M394 539v-105h-121v-434h-161v434h-98v105h98v67q0 90 60 116.5t140 26.5h11t11 -1q9 0 17.5 -1t15.5 -2q8 -1 15 -1.5t12 -1.5l1 -108q-3 1 -7 1.5t-10 0.5q-5 1 -11.5 1.5t-13.5 1.5q-6 0 -12 0.5t-11 0.5q-28 0 -42.5 -17.5t-14.5 -43.5v-40h121z"/>
<glyph glyph-name="g" horiz-adv-x="676" unicode="g" d="M332 122q9 0 20 1t21 4q31 8 57 41t26 113q0 77 -34.5 119t-90.5 42q-10 0 -23.5 -2t-27.5 -9q-27 -12 -49.5 -45.5t-22.5 -102.5q0 -13 1.5 -30.5t5.5 -35.5q9 -36 34.5 -65.5t82.5 -29.5zM79 -42h157q10 -33 37.5 -46.5t67.5 -13.5q7 0 14 0.5t15 2.5q30 5 55 31.5 t25 91.5v54h-3q-35 -34 -73 -49.5t-88 -15.5q-97 0 -170.5 62.5t-73.5 198.5q0 128 65 204.5t181 76.5q15 0 30.5 -1.5t30.5 -4.5q29 -7 56.5 -23t49.5 -47h3v60h153v-489q0 -126 -55 -179.5t-121 -68.5q-25 -5 -49.5 -7t-45.5 -2h-13.5h-13.5q-79 3 -147 35t-87 130z"/>
<glyph glyph-name="h" horiz-adv-x="648" unicode="h" d="M226 742v-262q14 15 28.5 26.5t29.5 19.5q39 20 73.5 24t50.5 4q14 0 30.5 -1.5t33.5 -6.5q43 -13 78.5 -58t35.5 -150v-338h-161v312q0 10 -0.5 21.5t-2.5 23.5q-5 28 -23.5 51t-64.5 23q-52 0 -80 -33.5t-28 -94.5v-303h-161v742h161z"/>
<glyph glyph-name="i" horiz-adv-x="290" unicode="i" d="M62 616v126h166v-126h-166zM65 539h161v-539h-161v539z"/>
<glyph glyph-name="j" horiz-adv-x="290" unicode="j" d="M62 616v126h166v-126h-166zM64 539h161l1 -565q0 -109 -46.5 -143t-109.5 -34q-9 0 -19 0.5t-20 0.5q-16 2 -31.5 3.5t-29.5 3.5l-1 107q10 -1 17.5 -1.5t13.5 -0.5q32 0 45 14t16 31q2 9 2.5 17.5t0.5 15.5v0v2v549z"/>
<glyph glyph-name="k" horiz-adv-x="613" unicode="k" d="M226 334l184 205h194l-213 -213l232 -326h-192l-150 224l-55 -56v-168h-161v742h161v-408z"/>
<glyph glyph-name="l" horiz-adv-x="291" unicode="l" d="M65 742h161v-742h-161v742z"/>
<glyph glyph-name="m" horiz-adv-x="968" unicode="m" d="M65 539h150v-79q5 7 15 19t24 25q22 19 53.5 35t73.5 16q61 0 95.5 -25t51.5 -55l6 -12t5 -12q49 68 96.5 86t87.5 18q81 0 119 -39t52 -86q8 -29 10 -56.5t2 -45.5v-328h-161v317q0 10 -0.5 23t-3.5 26q-5 25 -21.5 46t-54.5 21q-4 0 -8 -0.5t-8 -0.5q-31 -5 -57 -33 t-26 -90v-309h-161v317q0 48 -15 82t-67 34q-5 0 -10 -0.5t-10 -1.5q-29 -7 -53 -35.5t-24 -86.5v-309h-161v539z"/>
<glyph glyph-name="n" horiz-adv-x="648" unicode="n" d="M219 539v-65q6 7 14.5 15.5t20.5 17.5q24 18 61 32.5t91 14.5q14 0 30 -1.5t32 -5.5q44 -12 81 -56.5t37 -152.5v-338h-161v312q0 10 -0.5 21.5t-2.5 23.5q-5 28 -23.5 51t-64.5 23q-52 0 -80 -33.5t-28 -94.5v-303h-161v539h154z"/>
<glyph glyph-name="o" horiz-adv-x="665" unicode="o" d="M332 88q10 0 23 1.5t26 6.5q29 12 53.5 49.5t24.5 124.5q0 86 -24.5 123.5t-53.5 49.5q-13 5 -26 6.5t-23 1.5t-23 -1.5t-26 -7.5q-29 -12 -53 -49.5t-24 -122.5q0 -86 24 -124t53 -49q13 -6 26 -7.5t23 -1.5zM332 -20q-112 1 -202.5 65.5t-90.5 224.5q0 136 64.5 199 t142.5 80q22 6 44 8t42 2t41 -2t42 -7q79 -17 145 -79.5t66 -200.5t-65 -200.5t-144 -79.5q-21 -5 -43 -7t-42 -2v-1z"/>
<glyph glyph-name="p" horiz-adv-x="676" unicode="p" d="M218 270q0 -65 27.5 -119t98.5 -54q68 0 97 51.5t29 121.5q0 94 -37.5 132.5t-82.5 40.5h-3.5h-2.5h-2.5h-3.5q-45 -2 -82.5 -40.5t-37.5 -132.5zM65 539h151l-1 -65h3q15 17 29.5 29.5t29.5 21.5q30 19 59 25.5t56 6.5q116 0 180.5 -80.5t64.5 -208.5q0 -111 -39 -169 t-85 -84q-44 -23 -81 -27t-43 -4q-11 0 -22.5 1t-22.5 3q-33 7 -64.5 23t-53.5 44v-251h-161v735z"/>
<glyph glyph-name="q" horiz-adv-x="675" unicode="q" d="M458 270q0 94 -37.5 132.5t-82.5 40.5h-3.5h-2.5q-57 0 -84.5 -36.5t-36.5 -79.5q-3 -15 -4.5 -29.5t-1.5 -27.5q0 -10 2 -33.5t10 -49.5q11 -34 37.5 -62t77.5 -28q68 0 97 51.5t29 121.5zM461 474l-2 65h151v-735h-161v251q-25 -31 -59 -47.5t-70 -21.5q-9 -1 -17 -1.5 t-16 -0.5q-118 0 -183 80t-65 204q0 154 75 221t165 69h3.5h2.5q59 0 101.5 -23.5t71.5 -60.5h3z"/>
<glyph glyph-name="r" horiz-adv-x="449" unicode="r" d="M435 548v-128q-14 3 -27 4t-25 1q-67 0 -99.5 -34.5t-45.5 -75.5q-8 -28 -10 -54t-2 -41v-220h-161v539h154v-88q35 59 86.5 78t110.5 19h19z"/>
<glyph glyph-name="s" horiz-adv-x="587" unicode="s" d="M32 170h165q2 -32 23.5 -59t84.5 -27q37 0 62 15.5t25 45.5q0 40 -30 53.5t-83 22.5q-9 1 -19 2.5t-21 3.5q-9 2 -19 3.5t-20 3.5q-56 12 -102.5 44.5t-46.5 114.5q0 86 67.5 125t174.5 39q104 0 154 -30t69 -67q10 -19 13.5 -37.5t4.5 -32.5h-146q-2 33 -18.5 47.5 t-36.5 18.5q-8 2 -15.5 2.5t-14.5 0.5q-8 0 -17 -0.5t-18 -2.5q-23 -4 -41.5 -15.5t-18.5 -36.5q0 -42 34.5 -54.5t78.5 -18.5q4 -1 8 -1.5t7 -0.5q2 0 3.5 -0.5t2.5 -0.5q17 -3 37.5 -6t40.5 -8q51 -12 93 -44.5t42 -106.5q0 -11 -1 -23t-4 -25q-13 -50 -66.5 -91 t-183.5 -41q-128 0 -197 52.5t-71 134.5z"/>
<glyph glyph-name="t" horiz-adv-x="408" unicode="t" d="M14 431v108h97v161h161v-161h115v-108h-115v-259v-2.5v-3.5v-7v-7q1 -20 12 -36.5t52 -16.5q11 0 24 2.5t27 6.5v-108q-13 -2 -28 -4.5t-29 -4.5q-20 -2 -39 -3.5t-36 -1.5q-70 0 -107 31.5t-37 124.5v289h-97z"/>
<glyph glyph-name="u" horiz-adv-x="648" unicode="u" d="M429 0v65q-16 -18 -33 -30.5t-34 -21.5q-33 -16 -64.5 -21.5t-55.5 -5.5q-85 0 -122 39.5t-49 87.5q-6 24 -7.5 47t-1.5 41v338h161v-312q0 -10 0.5 -21t1.5 -23q5 -28 23 -51.5t65 -23.5q51 0 80 34t29 94v303h161v-539h-154z"/>
<glyph glyph-name="v" horiz-adv-x="551" unicode="v" d="M275 161l111 378h175l-197 -539h-177l-197 539h175z"/>
<glyph glyph-name="w" horiz-adv-x="846" unicode="w" d="M423 348l-90 -348h-168l-175 539h177l91 -351l88 351h154l88 -351l91 351h177l-176 -539h-168z"/>
<glyph glyph-name="x" horiz-adv-x="589" unicode="x" d="M295 371l99 168h186l-191 -260l200 -279h-185l-109 176l-109 -176h-186l201 279l-191 260h186z"/>
<glyph glyph-name="y" horiz-adv-x="591" unicode="y" d="M101 -88q3 0 6 -1t7 -2q9 -2 18.5 -2.5t20.5 -0.5q32 0 49 17.5t29 57.5l8 25l-235 533h194l125 -351l97 351h171l-187 -568q-25 -73 -61.5 -124.5t-128.5 -51.5h-14.5t-14.5 1q-18 1 -34.5 2.5t-29.5 3.5q-6 2 -11 2z"/>
<glyph glyph-name="z" horiz-adv-x="543" unicode="z" d="M51 428v111h450v-116l-280 -312h294v-111h-487v113l286 315h-263z"/>
<glyph glyph-name="braceleft" horiz-adv-x="527" unicode="{" d="M140 264v98q7 1 15.5 2.5t17.5 5.5q23 11 42 40t19 90v14t-1 14q0 7 -0.5 14t-0.5 14q-1 14 -1.5 27.5t-0.5 26.5q0 80 35 116.5t77 48.5q18 5 35 6.5t32 1.5h7.5h6.5v-77q-28 -7 -43 -20.5t-22 -29.5q-6 -14 -7.5 -27t-1.5 -20q0 -41 1 -49t1 -9q1 -2 2 -11.5t1 -54.5 q0 -16 -2.5 -35.5t-11.5 -39.5q-11 -26 -36 -50.5t-71 -42.5v-8q74 -31 97.5 -72.5t23.5 -95.5q0 -19 -1 -36t-1 -32q-1 -16 -2 -30t-1 -27q0 -7 1.5 -19.5t8.5 -27.5q7 -14 22 -27.5t42 -20.5v-78q-4 1 -8 1h-9q-12 0 -24 1t-24 3q-48 9 -88 46t-40 122q0 14 0.5 27.5 t1.5 26.5q0 7 0.5 14t0.5 14q1 7 1 14v14q0 63 -19.5 92t-42.5 39q-9 3 -17 4.5t-15 2.5z"/>
<glyph glyph-name="bar" horiz-adv-x="526" unicode="|" d="M200 -196v1053h126v-1053h-126z"/>
<glyph glyph-name="braceright" horiz-adv-x="527" unicode="}" d="M387 362v-98q-40 -4 -59.5 -26.5t-26.5 -49.5q-5 -18 -6.5 -34.5t-1.5 -27.5q0 -25 0.5 -40.5t1.5 -25.5q0 -4 0.5 -7t0.5 -6q0 -6 0.5 -13.5t0.5 -17.5q0 -75 -32 -111.5t-70 -49.5q-21 -7 -41.5 -9t-35.5 -2h-7.5h-6.5v76q27 8 42 21.5t22 27.5q7 15 8.5 27.5t1.5 19.5 q0 13 -1 27t-1 30q-1 15 -2 32t-1 36q0 54 23.5 95.5t97.5 72.5v8q-46 18 -71 42.5t-36 50.5q-9 20 -11.5 39.5t-2.5 35.5q0 45 1 54.5t2 11.5q0 1 1 9t1 49q0 7 -1.5 20t-7.5 27q-7 16 -22 29.5t-43 20.5v77h8h8q13 0 27 -1.5t28 -4.5q46 -11 84 -48t38 -119 q0 -16 -0.5 -24t-0.5 -14q-1 -2 -1 -3v-3q-1 -8 -1.5 -22t-0.5 -44q0 -62 19 -91t42 -39q9 -4 17.5 -5.5t15.5 -2.5z"/>
<glyph glyph-name="asciitilde" horiz-adv-x="525" unicode="~" d="M365 742h105v-2.5t-1 -3.5q-5 -51 -36.5 -93.5t-89.5 -42.5q-25 0 -43 5t-33 10q-5 2 -9.5 3.5t-9.5 3.5q-6 2 -12 3.5t-12 3.5q-7 1 -13 2t-12 1q-16 0 -25.5 -6.5t-15.5 -22.5h-103q9 61 31 90.5t46 40.5q13 6 25.5 8t23.5 2q12 0 21.5 -1t18.5 -3q12 -3 25 -7.5 t30 -10.5q14 -5 26.5 -8.5t25.5 -3.5q3 0 8 1t11 4q5 3 10 9.5t8 17.5z"/>
<glyph glyph-name="exclamdown" horiz-adv-x="683" unicode="¡" d="M152 924h117q0 -31 17.5 -46t38.5 -21q10 -2 19 -3t17 -1q43 0 62.5 14.5t25.5 31.5q2 6 3 12.5t1 12.5h118q0 -3 -0.5 -5.5t-0.5 -5.5q-6 -51 -53.5 -93t-155.5 -42q-110 0 -157 44t-52 96v3.5v2.5zM375 379l128 363h190l-241 -590q-46 -112 -105.5 -138.5t-124.5 -26.5 q-28 0 -51 2.5t-45 7.5l-8 2t-8 1v144q15 -4 34 -7t42 -3q34 0 53 13t28 29q5 8 8 15.5t4 13.5l-275 537h209z"/>
<glyph glyph-name="cent" horiz-adv-x="591" unicode="¢" d="M105 742h118q1 -31 18 -46t38 -21q10 -2 19 -3t17 -1q43 0 62.5 14.5t25.5 31.5q2 6 3 12.5t1 12.5h118q0 -3 -0.5 -5.5t-0.5 -5.5q-7 -51 -55 -93t-154 -42q-89 0 -132.5 27.5t-60.5 61.5q-8 15 -12 30t-5 27zM101 -88q3 0 6 -1t7 -2q9 -2 18.5 -2.5t20.5 -0.5 q32 0 49 17.5t29 57.5l8 25l-235 533h194l125 -351l97 351h171l-187 -568q-25 -73 -61.5 -124.5t-128.5 -51.5h-14.5t-14.5 1q-18 1 -34.5 2.5t-29.5 3.5q-6 2 -11 2z"/>
<glyph glyph-name="sterling" horiz-adv-x="588" unicode="£" d="M329 0v168h175v-168q0 -85 -34 -124.5t-76 -52.5q-17 -6 -34 -8t-31 -2v83q1 1 1.5 1h1.5q33 2 60.5 24.5t27.5 73.5v5h-91zM84 0v168h175v-168q0 -85 -34 -124.5t-76 -52.5q-17 -6 -34 -8t-31 -2v83q1 1 1.5 1h1.5q33 2 60.5 24.5t27.5 73.5v5h-91z"/>
<glyph glyph-name="currency" horiz-adv-x="875" unicode="¤" d="M211 350q0 -94 67 -160.5t159 -66.5q95 0 161 68t66 159q0 94 -68 160.5t-159 66.5q-13 0 -27 -2t-28 -5q-17 -5 -34.5 -12.5t-33.5 -17.5q-23 -16 -40 -33.5t-28 -35.5q-23 -35 -29 -68t-6 -53zM70 56l118 118q-4 6 -11 17t-14 26q-12 24 -21.5 57.5t-9.5 75.5t9.5 75.5 t21.5 57.5q7 15 14 26t11 17l-118 118l70 70l117 -118q11 9 22.5 16t22.5 13q37 19 72.5 25t62.5 6t62.5 -6t72.5 -25q11 -6 22.5 -13t22.5 -16l118 118l70 -70l-118 -118q5 -6 11.5 -16.5t13.5 -24.5q11 -24 21 -58t10 -77t-10 -77t-21 -58q-7 -14 -13.5 -24.5t-11.5 -16.5 l118 -118l-70 -70l-118 118q-11 -9 -22.5 -16t-22.5 -13q-37 -19 -72.5 -25t-62.5 -6t-62.5 6t-72.5 25q-11 6 -22.5 13t-22.5 16l-117 -118z"/>
<glyph glyph-name="yen" horiz-adv-x="590" unicode="¥" d="M254 598v-598h-175v742h334v168h154l9 -312h-322z"/>
<glyph glyph-name="brokenbar" horiz-adv-x="526" unicode="¦" d="M200 -196v1053h126v-1053h-126z"/>
<glyph glyph-name="section" horiz-adv-x="654" unicode="§" d="M282 228l126 -37q2 1 4.5 1.5t5.5 1.5q20 7 37 25t17 50q0 25 -19.5 48t-78.5 41l-125 38q-28 -10 -45.5 -27.5t-17.5 -49.5q0 -30 17.5 -48t38.5 -28q11 -6 21.5 -9.5t18.5 -5.5zM535 562h-130q-4 50 -26 65t-52 15t-51.5 -15t-21.5 -47q0 -30 23 -44.5t60 -25.5 q8 -2 15.5 -4.5t15.5 -4.5q6 -2 12.5 -3.5t13.5 -3.5q76 -22 140 -62t64 -143q0 -48 -17 -81.5t-38 -54.5q-17 -16 -31.5 -25t-20.5 -12q1 -1 2.5 -2t2.5 -2q24 -22 37 -46.5t13 -61.5q0 -5 -0.5 -10.5t-0.5 -11.5q-7 -61 -57.5 -112.5t-161.5 -51.5q-16 0 -45 2.5t-61 13.5 q-45 17 -82 60.5t-37 133.5h133q0 -8 1 -17t4 -18q6 -21 25.5 -38.5t61.5 -17.5q39 0 55.5 13.5t21.5 30.5q1 5 1.5 10.5t0.5 9.5q0 25 -12 38.5t-42 24.5q-14 5 -32 10.5t-41 12.5q-83 25 -152.5 65t-69.5 152q0 65 33.5 106t75.5 55l-4 4l-4 4q-22 23 -32.5 48t-10.5 61 q0 11 1.5 22.5t4.5 23.5q13 47 60.5 86.5t145.5 39.5q123 0 166 -56.5t43 -126.5v-4.5v-4.5z"/>
<glyph glyph-name="dieresis" horiz-adv-x="699" unicode="¨" d="M433 812v112h140v-112h-140zM181 812v112h140v-112h-140zM254 447h363v-136h-363v-167h421v-144h-596v742h587v-144h-412v-151z"/>
<glyph glyph-name="copyright" horiz-adv-x="854" unicode="©" d="M584 315q-9 -58 -35 -85.5t-55 -38.5q-17 -6 -33.5 -7.5t-29.5 -1.5q-73 0 -109.5 33t-51.5 73q-9 24 -12 46.5t-3 37.5q0 12 1 24.5t3 24.5q9 56 46.5 103t121.5 47q62 0 92.5 -22.5t43.5 -49.5q6 -13 8.5 -26.5t3.5 -23.5h-83l-1 8q-1 8 -7 18t-19 18t-38 8 q-42 0 -58.5 -33.5t-18.5 -74.5q-1 -5 -1 -10.5v-10.5q0 -61 22 -88t49 -31q3 -1 6 -1h6q29 0 46.5 19t18.5 44h87zM145 371q0 -121 82 -208t200 -87t199.5 87t81.5 208t-81.5 208t-199.5 87t-200 -87t-82 -208zM56 371q0 156 109.5 263.5t261.5 107.5q150 0 260.5 -107.5 t110.5 -263.5q0 -151 -108 -261t-263 -110q-153 0 -262 108t-109 263z"/>
<glyph glyph-name="ordfeminine" horiz-adv-x="813" unicode="ª" d="M558 441v-136h-324q3 -83 36.5 -121t72.5 -51q21 -6 40.5 -8t34.5 -2q4 0 30 2t56 14q26 11 49 31.5t33 56.5h185q-23 -99 -76 -150.5t-112 -73.5q-47 -16 -91.5 -20t-73.5 -4q-31 0 -72.5 4.5t-85.5 18.5q-81 29 -148 112.5t-67 266.5q0 174 96 277t289 103 q161 0 243 -75.5t92 -166.5v-1.5v-1.5h-182q-9 38 -33 58.5t-51 29.5q-25 9 -47.5 10.5t-33.5 1.5t-36 -2.5t-53 -14.5q-34 -15 -63 -51t-32 -107h324z"/>
<glyph glyph-name="guillemotleft" horiz-adv-x="494" unicode="«" d="M60 358l159 145v-146l-87 -73l87 -74v-146l-159 144v150zM261 358l159 143v-145l-87 -72l87 -75v-146l-159 145v150z"/>
<glyph glyph-name="logicalnot" horiz-adv-x="712" unicode="¬" d="M56 413h600v-184h-90v100h-510v84z"/>
<glyph glyph-name="sfthyphen" unicode="­"/>
<glyph glyph-name="registered" horiz-adv-x="854" unicode="®" d="M380 495v-95h46q26 0 38.5 8.5t17.5 18.5q3 6 4 12t1 10q0 25 -20.5 35t-45.5 11h-1.5h-1.5h-38zM292 189v371h164q49 0 85.5 -19t36.5 -81q0 -33 -12.5 -52.5t-28.5 -28.5q-6 -4 -11.5 -6.5t-10.5 -4.5v-1q35 -10 44 -30.5t9 -46.5v-11.5v-10.5q-1 -6 -1 -11.5v-11.5 q0 -16 3.5 -30.5t13.5 -25.5h-91l-1.5 1.5t-0.5 1.5q-7 9 -9 22t-3 42q0 38 -11.5 58.5t-69.5 20.5h-18v-146h-88zM146 371q0 -125 83 -210t198 -85q119 0 200.5 87t81.5 208t-81.5 208t-200.5 87q-115 0 -198 -85t-83 -210zM56 371q0 156 110.5 263.5t260.5 107.5 q152 0 261.5 -107.5t109.5 -263.5q0 -155 -109 -263t-262 -108q-155 0 -263 110t-108 261z"/>
<glyph glyph-name="overstore" horiz-adv-x="351" unicode="¯"/>
<glyph glyph-name="degree" horiz-adv-x="316" unicode="°" d="M102 641q0 -24 16 -40t40 -16q22 0 35.5 13t18.5 28q1 4 1.5 7.5t0.5 7.5q0 22 -16.5 39t-39.5 17q-4 0 -7.5 -0.5t-7.5 -1.5q-15 -5 -28 -18.5t-13 -35.5zM39 641v6.5t1 6.5q4 40 35.5 73t82.5 33q48 0 83.5 -34.5t35.5 -84.5q0 -51 -34.5 -85t-84.5 -34q-49 0 -77.5 28 t-37.5 61q-2 8 -3 15.5t-1 14.5z"/>
<glyph glyph-name="plusminus" horiz-adv-x="672" unicode="±" d="M381 175h-84v136h-227v84h227v168h84v-168h221v-84h-221v-136zM70 42v84h532v-84h-532z"/>
<glyph glyph-name="twosuperior" horiz-adv-x="332" unicode="²" d="M68 809v115h196v-115h-196zM78 742h175v-742h-175v742z"/>
<glyph glyph-name="threesuperior" horiz-adv-x="290" unicode="³" d="M62 616v126h166v-126h-166zM65 539h161v-539h-161v539z"/>
<glyph glyph-name="acute" horiz-adv-x="302" unicode="´" d="M145 742h169l-112 -140h-130z"/>
<glyph glyph-name="mu" horiz-adv-x="492" unicode="µ" d="M229 427v-427h-164v539h287v140h118l8 -252h-249z"/>
<glyph glyph-name="paragraph" horiz-adv-x="582" unicode="¶" d="M413 -196v938h126v-938h-126zM203 -196v588q-77 2 -121 48.5t-52 101.5q-1 6 -1.5 12.5t-0.5 12.5v7t1 7q4 59 48.5 108.5t125.5 52.5h126v-938h-126z"/>
<glyph glyph-name="middot" horiz-adv-x="351" unicode="·"/>
<glyph glyph-name="cedilla" horiz-adv-x="656" unicode="¸" d="M391 616v126h167v-126h-167zM98 616v126h167v-126h-167zM205 320h246q-1 58 -21.5 86.5t-44.5 38.5q-13 5 -26 7t-22 2q-51 0 -78 -24t-40 -53q-7 -16 -10 -31t-4 -26zM443 156h163q-4 -14 -10.5 -31t-17.5 -35q-26 -40 -84 -73.5t-167 -33.5q-145 0 -216.5 78.5 t-71.5 208.5q0 143 86.5 214.5t213.5 71.5q153 0 215.5 -90t62.5 -206v-24h-412v-8t1 -8q3 -51 33 -93.5t95 -42.5h3.5h3.5q34 2 64 19.5t38 52.5z"/>
<glyph glyph-name="onesuperior" horiz-adv-x="1229" unicode="¹" d="M923 396q0 -43 16 -78.5t53 -35.5t53 35.5t16 78.5q0 48 -13.5 72.5t-29.5 34.5q-7 4 -13.5 5.5t-12.5 1.5t-12.5 -1.5t-13.5 -5.5q-16 -10 -29.5 -34.5t-13.5 -72.5zM797 396q0 14 1.5 29.5t5.5 31.5q13 57 56.5 104t131.5 47q79 0 120 -36.5t58 -79.5 q10 -28 13.5 -53.5t3.5 -42.5q0 -100 -46.5 -147.5t-102.5 -59.5q-11 -3 -23 -4t-23 -1q-13 0 -26.5 1.5t-27.5 5.5q-53 14 -97 61.5t-44 143.5zM806 0v126h372v-126h-372zM257 464h-3v-464h-175v742h178l292 -461h3v461h175v-742h-177z"/>
<glyph glyph-name="ordmasculine" horiz-adv-x="637" unicode="º" d="M416 321v-98h-215q2 -59 22.5 -88t45.5 -40q17 -8 33 -10t25 -2q10 0 24 1.5t28 5.5q22 8 41 26t27 55h154q-17 -79 -60.5 -118t-91.5 -54q-34 -11 -66.5 -14t-55.5 -3q-130 0 -209 69.5t-79 211.5q0 130 51 191t112 83q36 13 69.5 16.5t57.5 3.5q114 0 170.5 -38 t78.5 -84q8 -16 13 -32.5t7 -30.5h-150q-6 41 -38.5 61t-71.5 22h-4.5h-4.5q-55 0 -82 -26t-37 -57q-4 -13 -6.5 -26.5t-2.5 -24.5h215z"/>
<glyph glyph-name="guillemotright" horiz-adv-x="493" unicode="»" d="M433 358v-150l-159 -144v144l87 74l-87 74v147zM232 356v-149l-158 -144v144l86 73l-86 74v146z"/>
<glyph glyph-name="onequarter" horiz-adv-x="672" unicode="¼" d="M273 535q0 25 14.5 40t31.5 20q4 2 8.5 2.5t8.5 0.5q24 0 43 -18.5t19 -44.5q0 -24 -18 -43t-44 -19q-3 0 -7 0.5t-7 1.5q-19 4 -34 19t-15 41zM70 312v84h532v-84h-532zM273 170q0 26 15 41.5t34 19.5q3 1 7 1.5t7 0.5q26 0 44 -19t18 -44q0 -4 -0.5 -8t-1.5 -8 q-5 -17 -20 -31.5t-40 -14.5q-28 0 -45.5 18.5t-17.5 43.5z"/>
<glyph glyph-name="onehalf" horiz-adv-x="742" unicode="½" d="M119 178l193 193l-193 193l59 59l193 -193l193 193l59 -59l-193 -193l193 -193l-59 -59l-193 193l-193 -193z"/>
<glyph glyph-name="threequarters" horiz-adv-x="1197" unicode="¾" d="M910 0v168h175v-168h-175zM511 0v168h175v-168h-175zM112 0v168h175v-168h-175z"/>
<glyph glyph-name="questiondown" horiz-adv-x="386" unicode="¿" d="M226 616v126h130v-126h-130zM30 616v126h130v-126h-130zM113 539h161v-539h-161v539z"/>
<glyph glyph-name="OE" horiz-adv-x="1227" unicode="Œ" d="M420 123q83 0 121.5 44.5t52.5 97.5q8 29 10 57.5t2 48.5q0 21 -2 48t-9 56q-13 54 -52 99t-123 45q-101 0 -139.5 -64.5t-44.5 -141.5q-1 -11 -1.5 -21.5t-0.5 -20.5q0 -13 0.5 -25.5t2.5 -25.5q7 -74 46 -135.5t137 -61.5zM634 742h559v-144h-412v-151h363v-136h-363 v-167h422v-144h-569v71q-5 -7 -11 -14t-13 -14q-26 -24 -71 -43.5t-119 -19.5q-182 0 -278.5 109t-96.5 282q0 206 112.5 299.5t263.5 93.5q66 0 108 -15t66 -33q16 -13 25 -24t14 -18v68z"/>
<glyph glyph-name="oe" horiz-adv-x="1070" unicode="œ" d="M618 320h246q-1 59 -22 87t-45 38q-13 6 -25 7.5t-22 1.5q-59 0 -89 -33.5t-39 -74.5q-1 -6 -2 -13t-2 -13zM332 88q58 0 84.5 32.5t34.5 70.5q6 22 7 43t1 36q0 86 -24.5 123.5t-53.5 49.5q-13 5 -26 6.5t-23 1.5t-23 -1.5t-26 -7.5q-29 -12 -53 -49.5t-24 -122.5 q0 -86 24 -124t53 -49q13 -6 26 -7.5t23 -1.5zM856 156h163q-13 -70 -79 -121.5t-188 -51.5q-20 0 -48.5 2.5t-58.5 12.5q-29 8 -57 26t-48 49q-34 -52 -88 -72t-120 -20q-21 0 -43.5 2.5t-44.5 7.5q-77 17 -141 80t-64 199q0 154 87 221.5t205 67.5q68 0 126.5 -27 t83.5 -77q20 33 46 53.5t54 31.5q31 12 61 15.5t51 3.5q128 0 190 -67.5t79 -148.5q5 -21 7 -42t2 -40v-13t-1 -12h-412q0 -12 1.5 -26.5t5.5 -29.5q10 -36 38 -66t84 -30q37 0 69 17.5t40 54.5z"/>
<glyph glyph-name="Scaron" horiz-adv-x="351" unicode="Š"/>
<glyph glyph-name="scaron" horiz-adv-x="742" unicode="š" d="M266 371q0 47 32 75.5t70 29.5h1.5h1.5q42 0 73.5 -30t31.5 -75q0 -43 -30.5 -74t-74.5 -31q-45 0 -75 31.5t-30 73.5z"/>
<glyph glyph-name="Ydieresis" horiz-adv-x="742" unicode="Ÿ" d="M266 371q0 47 32 75.5t70 29.5h1.5h1.5q42 0 73.5 -30t31.5 -75q0 -43 -30.5 -74t-74.5 -31q-45 0 -75 31.5t-30 73.5z"/>
<glyph glyph-name="tilde" horiz-adv-x="0" unicode="ˆ" d="M147 742h98q-2 -8 -4 -17t-5 -18q-13 -38 -41 -69.5t-79 -31.5q-16 0 -30 3t-28 7q-15 5 -30.5 12t-33.5 15q-20 8 -36 12.5t-29 4.5q-20 0 -32.5 -10t-14.5 -33h-99q2 9 4.5 18.5t6.5 19.5q13 36 42 65.5t77 29.5q31 0 53.5 -8t41.5 -18q2 0 3 -1t3 -1q3 -2 6.5 -3.5 t7.5 -3.5q10 -5 22 -9t24 -7q7 -1 13.5 -2t13.5 -1q21 0 32 13t14 28v2.5v2.5z"/>
<glyph glyph-name="circumflex" horiz-adv-x="0" unicode="˜" d="M-106 742h212l118 -140h-126l-98 98l-98 -98h-126z"/>
<glyph glyph-name="Gamma" unicode="Γ"/>
<glyph glyph-name="Theta" unicode="Θ"/>
<glyph glyph-name="summation" unicode="Σ"/>
<glyph glyph-name="Phi" unicode="Φ"/>
<glyph glyph-name="alpha" unicode="α"/>
<glyph glyph-name="delta" unicode="δ"/>
<glyph glyph-name="epsilon" unicode="ε"/>
<glyph glyph-name="pi" unicode="π"/>
<glyph glyph-name="sigma" horiz-adv-x="351" unicode="σ"/>
<glyph glyph-name="tau" unicode="τ"/>
<glyph glyph-name="phi" horiz-adv-x="351" unicode="φ"/>
<glyph glyph-name="endash" horiz-adv-x="712" unicode="–" d="M56 413h600v-84h-600v84z"/>
<glyph glyph-name="emdash" horiz-adv-x="952" unicode="—" d="M56 238v91h840v-91h-840z"/>
<glyph glyph-name="quoteleft" horiz-adv-x="399" unicode="‘" d="M287 575v-168h-175v168q0 16 2 36t9 41q12 40 48.5 73.5t115.5 37.5v-84h-1.5h-1.5q-33 -2 -60.5 -24.5t-27.5 -74.5v-5h91z"/>
<glyph glyph-name="quotesinglbase" horiz-adv-x="399" unicode="‚" d="M112 0v168h175v-168q0 -85 -34 -124.5t-76 -52.5q-17 -6 -34 -8t-31 -2v83q1 1 1.5 1h1.5q33 2 60.5 24.5t27.5 73.5v5h-91z"/>
<glyph glyph-name="quotedblleft" horiz-adv-x="588" unicode="“" d="M504 575v-168h-175v168q0 16 2 36t9 41q12 40 48.5 73.5t115.5 37.5v-84h-1.5h-1.5q-33 -2 -60.5 -24.5t-27.5 -74.5v-5h91zM259 575v-168h-175v168q0 16 2 36t9 41q12 40 48.5 73.5t115.5 37.5v-84h-1.5h-1.5q-33 -2 -60.5 -24.5t-27.5 -74.5v-5h91z"/>
<glyph glyph-name="quotedblright" horiz-adv-x="588" unicode="”" d="M329 574v168h175v-168q0 -16 -1.5 -34.5t-6.5 -37.5q-11 -41 -47.5 -76t-119.5 -40v84h1.5h1.5q33 2 60.5 24.5t27.5 73.5v6h-91zM84 574v168h175v-168q0 -16 -1.5 -34.5t-6.5 -37.5q-11 -41 -47.5 -76t-119.5 -40v84h1.5h1.5q33 2 60.5 24.5t27.5 73.5v6h-91z"/>
<glyph glyph-name="dagger" horiz-adv-x="600" unicode="†" d="M216 742h168v-203h189v-140h-189v-595h-168v595h-189v140h189v203z"/>
<glyph glyph-name="daggerdbl" horiz-adv-x="742" unicode="‡" d="M266 371q0 47 32 75.5t70 29.5h1.5h1.5q42 0 73.5 -30t31.5 -75q0 -43 -30.5 -74t-74.5 -31q-45 0 -75 31.5t-30 73.5z"/>
<glyph glyph-name="ellipsis" horiz-adv-x="1197" unicode="…" d="M910 0v168h175v-168h-175zM511 0v168h175v-168h-175zM112 0v168h175v-168h-175z"/>
<glyph glyph-name="perthousand" horiz-adv-x="930" unicode="‰" d="M45 246q0 172 121.5 296t298.5 124t298.5 -124t121.5 -296q0 -175 -124.5 -297t-295.5 -122t-295.5 122t-124.5 297z"/>
<glyph glyph-name="guilsinglleft" horiz-adv-x="293" unicode="‹" d="M60 358l159 145v-146l-87 -73l87 -74v-146l-159 144v150z"/>
<glyph glyph-name="guilsinglright" horiz-adv-x="293" unicode="›" d="M233 358v-150l-159 -144v144l87 74l-87 74v147z"/>
<glyph glyph-name="trademark" horiz-adv-x="994" unicode="™" d="M656 371l-85 252h-8l8 -48v-204h-118v371h160l74 -227l5 -39h7l4 39l75 227h160v-371h-118v204l8 48h-8l-85 -252h-79zM137 655h-116v87h350v-87h-116v-284h-118v284z"/>
<glyph glyph-name="arrowleft" horiz-adv-x="351" unicode="←"/>
<glyph glyph-name="arrowup" horiz-adv-x="351" unicode="↑"/>
<glyph glyph-name="arrowright" unicode="→"/>
<glyph glyph-name="arrowdown" horiz-adv-x="351" unicode="↓"/>
<glyph glyph-name="partialdiff" unicode="∂"/>
<glyph glyph-name="product" horiz-adv-x="351" unicode="∏"/>
<glyph glyph-name="minus" horiz-adv-x="712" unicode="−" d="M56 413h600v-84h-600v84z"/>
<glyph glyph-name="radical" unicode="√"/>
<glyph glyph-name="infinity" horiz-adv-x="351" unicode="∞"/>
<glyph glyph-name="intersection" horiz-adv-x="351" unicode="∩"/>
<glyph glyph-name="approxequal" unicode="≈"/>
<glyph glyph-name="notequal" unicode="≠"/>
<glyph glyph-name="equivalence" horiz-adv-x="351" unicode="≡"/>
<glyph glyph-name="lessequal" unicode="≤"/>
<glyph glyph-name="greaterequal" unicode="≥"/>
<glyph glyph-name="lozenge" unicode="◊"/>
<glyph glyph-name="spade" horiz-adv-x="351" unicode="♠"/>
<glyph glyph-name="club" horiz-adv-x="351" unicode="♣"/>
<glyph glyph-name="heart" horiz-adv-x="351" unicode="♥"/>
<glyph glyph-name="diamond" horiz-adv-x="351" unicode="♦"/>
</font>
</defs>
</svg>
